<!-- to add an SVG icon go to https://phosphoricons.com/?q=%22user%22 search for the icon you nee -->
<!-- copy every thing between the <svg> tags in our icon  EXCEPT for the <rect> tag-->
<!-- wrap what you copied form previous step into <symbol> tags and add an id and viewBox as shown below -->

<svg aria-hidden="true" style="position: absolute; width: 0; height: 0; overflow: hidden;" version="1.1" xmlns="http://www.w3.org/2000/svg" xmlns:xlink="http://www.w3.org/1999/xlink">
<defs>
<symbol id="icon-user" viewBox="0 0 256 256">
<path d="M230.93,220a8,8,0,0,1-6.93,4H32a8,8,0,0,1-6.92-12c15.23-26.33,38.7-45.21,66.09-54.16a72,72,0,1,1,73.66,0c27.39,8.95,50.86,27.83,66.09,54.16A8,8,0,0,1,230.93,220Z" fill="#004AAD"/>
</symbol>

<symbol id="icon-sun" viewBox="0 0 256 256">
<line x1="128" y1="40" x2="128" y2="16" fill="none" stroke="currentColor" stroke-linecap="round" stroke-linejoin="round" stroke-width="16"/><circle cx="128" cy="128" r="56" fill="none" stroke="currentColor" stroke-linecap="round" stroke-linejoin="round" stroke-width="16"/><line x1="64" y1="64" x2="48" y2="48" fill="none" stroke="currentColor" stroke-linecap="round" stroke-linejoin="round" stroke-width="16"/><line x1="64" y1="192" x2="48" y2="208" fill="none" stroke="currentColor" stroke-linecap="round" stroke-linejoin="round" stroke-width="16"/><line x1="192" y1="64" x2="208" y2="48" fill="none" stroke="currentColor" stroke-linecap="round" stroke-linejoin="round" stroke-width="16"/><line x1="192" y1="192" x2="208" y2="208" fill="none" stroke="currentColor" stroke-linecap="round" stroke-linejoin="round" stroke-width="16"/><line x1="40" y1="128" x2="16" y2="128" fill="none" stroke="currentColor" stroke-linecap="round" stroke-linejoin="round" stroke-width="16"/><line x1="128" y1="216" x2="128" y2="240" fill="none" stroke="currentColor" stroke-linecap="round" stroke-linejoin="round" stroke-width="16"/><line x1="216" y1="128" x2="240" y2="128" fill="none" stroke="currentColor" stroke-linecap="round" stroke-linejoin="round" stroke-width="16"/>
</symbol>

<symbol id="icon-moon" viewBox="0 0 256 256">
<line x1="208" y1="120" x2="208" y2="72" fill="none" stroke="currentColor" stroke-linecap="round" stroke-linejoin="round" stroke-width="16"/><line x1="232" y1="96" x2="184" y2="96" fill="none" stroke="currentColor" stroke-linecap="round" stroke-linejoin="round" stroke-width="16"/><line x1="160" y1="32" x2="160" y2="64" fill="none" stroke="currentColor" stroke-linecap="round" stroke-linejoin="round" stroke-width="16"/><line x1="176" y1="48" x2="144" y2="48" fill="none" stroke="currentColor" stroke-linecap="round" stroke-linejoin="round" stroke-width="16"/><path d="M210.69,158.18A96.78,96.78,0,0,1,192,160,96.08,96.08,0,0,1,97.82,45.31,88,88,0,1,0,210.69,158.18Z" fill="none" stroke="currentColor" stroke-linecap="round" stroke-linejoin="round" stroke-width="16"/>
</symbol>

<symbol id="icon-align" viewBox="0 0 256 256">
<path d="M232,152v40a16,16,0,0,1-16,16H80a16,16,0,0,1-16-16V152a16,16,0,0,1,16-16H216A16,16,0,0,1,232,152ZM40,32a8,8,0,0,0-8,8V216a8,8,0,0,0,16,0V40A8,8,0,0,0,40,32Zm40,88h96a16,16,0,0,0,16-16V64a16,16,0,0,0-16-16H80A16,16,0,0,0,64,64v40A16,16,0,0,0,80,120Z" fill="#004AAD"/>
</symbol>

<symbol id="icon-robot" viewBox="0 0 256 256">
<path d="M200,48H136V16a8,8,0,0,0-16,0V48H56A32,32,0,0,0,24,80V192a32,32,0,0,0,32,32H200a32,32,0,0,0,32-32V80A32,32,0,0,0,200,48ZM172,96a12,12,0,1,1-12,12A12,12,0,0,1,172,96ZM96,184H80a16,16,0,0,1,0-32H96ZM84,120a12,12,0,1,1,12-12A12,12,0,0,1,84,120Zm60,64H112V152h32Zm32,0H160V152h16a16,16,0,0,1,0,32Z" fill="#004AAD"/>
</symbol>

<symbol id="icon-bell" viewBox="0 0 256 256">
<path d="M221.8,175.94C216.25,166.38,208,139.33,208,104a80,80,0,1,0-160,0c0,35.34-8.26,62.38-13.81,71.94A16,16,0,0,0,48,200H88.81a40,40,0,0,0,78.38,0H208a16,16,0,0,0,13.8-24.06ZM128,216a24,24,0,0,1-22.62-16h45.24A24,24,0,0,1,128,216Z" fill="#004AAD"/>
</symbol>

<symbol id="icon-seedling" viewBox="0 0 256 256">
<path d="M205.41,159.07a60.9,60.9,0,0,1-31.83,8.86,71.71,71.71,0,0,1-27.36-5.66A55.55,55.55,0,0,0,136,194.51V224a8,8,0,0,1-8.53,8,8.18,8.18,0,0,1-7.47-8.25V211.31L81.38,172.69A52.5,52.5,0,0,1,63.44,176a45.82,45.82,0,0,1-23.92-6.67C17.73,156.09,6,125.62,8.27,87.79a8,8,0,0,1,7.52-7.52c37.83-2.23,68.3,9.46,81.5,31.25A46,46,0,0,1,103.74,140a4,4,0,0,1-6.89,2.43l-19.2-20.1a8,8,0,0,0-11.31,11.31l53.88,55.25c.06-.78.13-1.56.21-2.33a68.56,68.56,0,0,1,18.64-39.46l50.59-53.46a8,8,0,0,0-11.31-11.32l-49,51.82a4,4,0,0,1-6.78-1.74c-4.74-17.48-2.65-34.88,6.4-49.82,17.86-29.48,59.42-45.26,111.18-42.22a8,8,0,0,1,7.52,7.52C250.67,99.65,234.89,141.21,205.41,159.07Z" fill="#004AAD"/>
</symbol>

<symbol id="icon-vector" viewBox="0 0 256 256">
<path d="M211.2,79.39a8,8,0,0,0-3.77,10.67A88.09,88.09,0,1,1,184.3,60.39L161.53,83.16A56,56,0,0,0,88.4,167.59h0a56,56,0,0,0,95.5-42.79,8,8,0,1,0-16,.9,40,40,0,0,1-62,35.67l23.95-23.95L167.6,99.72h0l62.06-62a8,8,0,0,0-11.32-11.32L195.67,49A104,104,0,0,0,54.46,201.54,104,104,0,0,0,221.87,83.16,8,8,0,0,0,211.2,79.39Z" fill="#004AAD"/>
</symbol>

<symbol id="icon-close" viewBox="0 0 256 256">
<line x1="160" y1="96" x2="96" y2="160" fill="none" stroke="currentColor" stroke-linecap="round" stroke-linejoin="round" stroke-width="16"/><line x1="96" y1="96" x2="160" y2="160" fill="none" stroke="currentColor" stroke-linecap="round" stroke-linejoin="round" stroke-width="16"/><circle cx="128" cy="128" r="96" fill="none" stroke="currentColor" stroke-linecap="round" stroke-linejoin="round" stroke-width="16"/>
</symbol>

<symbol id="icon-login" viewBox="0 0 256 256">
<circle cx="128" cy="128" r="96" fill="none" stroke="currentColor" stroke-linecap="round" stroke-linejoin="round" stroke-width="16"/><circle cx="128" cy="120" r="40" fill="none" stroke="currentColor" stroke-linecap="round" stroke-linejoin="round" stroke-width="16"/><path d="M63.8,199.37a72,72,0,0,1,128.4,0" fill="none" stroke="currentColor" stroke-linecap="round" stroke-linejoin="round" stroke-width="16"/>
</symbol>

</defs>
</svg>


<svg xmlns="http://www.w3.org/2000/svg" viewBox="0 0 256 256"><rect width="256" height="256" fill="none"/></svg>